<?xml version="1.0" standalone="no"?>
<!DOCTYPE svg PUBLIC "-//W3C//DTD SVG 20010904//EN"
 "http://www.w3.org/TR/2001/REC-SVG-20010904/DTD/svg10.dtd">
<svg version="1.0" xmlns="http://www.w3.org/2000/svg"
 width="350.000000pt" height="350.000000pt" viewBox="0 0 350.000000 350.000000"
 preserveAspectRatio="xMidYMid meet">

<g transform="translate(0.000000,350.000000) scale(0.100000,-0.100000)"
fill="#000000" stroke="none">
<path d="M1852 2821 c-12 -17 -51 -45 -85 -62 -107 -54 -144 -84 -162 -133
-20 -53 -15 -101 17 -141 l21 -27 -45 -39 c-88 -75 -107 -172 -53 -268 l25
-43 -59 -63 c-118 -127 -121 -249 -10 -370 59 -63 174 -137 369 -236 l165 -84
-380 -5 c-283 -4 -386 -8 -402 -18 -50 -28 -53 -51 -53 -347 l0 -275 34 -38
34 -37 476 -3 c526 -3 516 -4 557 61 19 30 20 47 17 332 -4 366 -7 377 -122
490 -62 61 -95 83 -254 165 -191 100 -336 193 -329 213 2 7 25 27 50 45 l47
34 67 -45 c75 -49 185 -112 310 -177 101 -52 154 -98 192 -169 l29 -54 7 58
c11 85 0 189 -26 243 -34 68 -91 119 -214 189 -162 91 -155 82 -96 126 28 20
54 37 59 37 5 0 44 -19 86 -42 86 -47 147 -101 167 -149 11 -28 14 -30 20 -13
14 34 9 149 -7 198 -10 29 -37 70 -70 106 -47 50 -53 61 -48 88 8 41 -10 93
-46 127 -27 26 -30 27 -35 9 -11 -34 -33 -69 -52 -81 -15 -9 -26 -7 -61 14
l-43 25 46 49 c38 41 45 54 45 89 0 33 -6 48 -31 73 l-31 31 -13 -31 c-14 -33
-57 -69 -123 -102 l-42 -21 -30 22 c-17 12 -30 24 -30 28 0 3 24 20 54 37 66
40 126 105 126 137 0 14 -10 37 -23 51 l-22 26 -23 -30z m-18 -517 c19 -14 19
-14 1 -28 -10 -7 -33 -21 -51 -31 -32 -17 -33 -17 -68 10 -20 15 -36 31 -36
35 0 5 19 19 43 33 45 25 53 24 111 -19z m-364 -1169 c0 -24 -2 -25 -70 -25
l-70 0 0 -45 0 -45 60 0 c57 0 60 -1 60 -25 0 -24 -3 -25 -60 -25 l-60 0 0
-65 0 -65 -35 0 -35 0 0 160 0 160 105 0 105 0 0 -25z m250 0 c0 -23 -3 -24
-72 -27 l-73 -3 -3 -37 -3 -38 65 0 c63 0 66 -1 66 -25 0 -23 -4 -24 -62 -27
l-63 -3 -3 -42 -3 -43 75 0 c74 0 76 -1 76 -25 l0 -25 -105 0 -105 0 0 160 0
160 105 0 c105 0 105 0 105 -25z m248 -2 c3 -21 -1 -22 -70 -25 l-73 -3 -3
-42 -3 -43 65 0 c63 0 66 -1 66 -25 0 -23 -4 -24 -62 -27 l-63 -3 -3 -62 c-3
-62 -3 -63 -32 -63 l-30 0 0 160 0 161 103 -3 c97 -3 102 -4 105 -25z m100
-103 c3 -134 9 -150 58 -150 47 0 54 22 54 156 l0 125 33 -3 32 -3 3 -90 c4
-120 -4 -172 -33 -201 -50 -50 -160 -40 -195 19 -17 27 -20 51 -20 155 l0 123
33 -3 32 -3 3 -125z"/>
</g>
</svg>
